<?xml version="1.0" encoding="UTF-8" standalone="no"?>
<svg
   xmlns:dc="http://purl.org/dc/elements/1.1/"
   xmlns:cc="http://creativecommons.org/ns#"
   xmlns:rdf="http://www.w3.org/1999/02/22-rdf-syntax-ns#"
   xmlns:svg="http://www.w3.org/2000/svg"
   xmlns="http://www.w3.org/2000/svg"
   xmlns:sodipodi="http://sodipodi.sourceforge.net/DTD/sodipodi-0.dtd"
   xmlns:inkscape="http://www.inkscape.org/namespaces/inkscape"
   viewBox="-5000 -5000 10000 10000"
   version="1.1"
   id="svg8"
   sodipodi:docname="pirate_party_flag.svg"
   inkscape:version="1.0.1 (3bc2e813f5, 2020-09-07)">
  <metadata
     id="metadata14">
    <rdf:RDF>
      <cc:Work
         rdf:about="">
        <dc:format>image/svg+xml</dc:format>
        <dc:type
           rdf:resource="http://purl.org/dc/dcmitype/StillImage" />
        <dc:title></dc:title>
      </cc:Work>
    </rdf:RDF>
  </metadata>
  <defs
     id="defs12" />
  <sodipodi:namedview
     pagecolor="#ffffff"
     bordercolor="#666666"
     borderopacity="1"
     objecttolerance="10"
     gridtolerance="10"
     guidetolerance="10"
     inkscape:pageopacity="0"
     inkscape:pageshadow="2"
     inkscape:window-width="2400"
     inkscape:window-height="1271"
     id="namedview10"
     showgrid="false"
     inkscape:zoom="0.083"
     inkscape:cx="3000"
     inkscape:cy="4493.9759"
     inkscape:window-x="2391"
     inkscape:window-y="-9"
     inkscape:window-maximized="1"
     inkscape:current-layer="svg8" />
  <circle
     r="5e3"
     id="circle2" />
  <path
     d="m-1944 1560v-4207c-187-12-343 0-441 29-28-61 144-155 441-245v-810h438v700c1578-327 4724-344 4741 2384 11 1926-3401 1632-4390 2257-1076 678-593 2113-593 2113s-651-1344-196-2221zm438-469c462-314 1255-693 1408-1418 308-1458-619-2063-1408-2253z"
     id="path6" />
  <path
     style="fill:#ffffff;fill-rule:evenodd;stroke:none;stroke-width:0;stroke-linecap:round;stroke-miterlimit:4;stroke-dasharray:none;stroke-dashoffset:368.277;fill-opacity:1;opacity:1"
     d="M 4656.6265,9481.8418 C 3390.8104,9372.0327 2269.6705,8775.8995 1484.545,7795.1807 1063.6919,7269.4831 751.8021,6611.542 608.34727,5946.8149 244.37224,4260.2625 877.22771,2522.2955 2244.5219,1453.5023 3259.6039,660.02807 4599.1317,340.67982 5861.4458,591.21461 c 893.3718,177.30985 1684.722,601.52759 2326.6837,1247.26119 676.5482,680.5234 1118.4666,1564.6438 1257.5535,2515.9141 229.9812,1572.9326 -392.3117,3149.6074 -1638.4541,4151.2758 -168.6503,135.5637 -461.4023,330.9323 -656.6265,438.2008 -486.1464,267.1198 -1069.4924,453.001 -1632.5301,520.1999 -189.6847,22.639 -687.0717,32.9023 -861.4458,17.7754 z M 3224.4586,8648.7084 c -67.3826,-276.8129 -90.4747,-635.3538 -56.4311,-876.1754 56.3084,-398.32 219.9083,-716.1391 491.7606,-955.3246 274.498,-241.5132 603.1797,-358.0284 1472.742,-522.076 691.4458,-130.4451 1044.821,-202.5358 1271.0844,-259.3091 673.1826,-168.9133 1135.265,-381.2285 1423.4904,-654.0579 131.2635,-124.2519 208.59,-227.4981 281.4126,-375.7413 105.9258,-215.6308 140.4537,-405.9175 127.8911,-704.8193 -17.5493,-417.5503 -89.1029,-716.6337 -249.3317,-1042.1687 C 7717.35,2711.0352 7236.2422,2323.7708 6542.1687,2095.968 5816.0092,1857.634 4833.3784,1807.8895 3843.3735,1959.3447 c -109.3374,16.7269 -232.6807,37.4769 -274.0964,46.111 l -75.3012,15.6983 v -347.9264 -347.9264 h -222.8916 -222.8915 v 401.9657 401.9658 l -111.4458,39.5306 c -201.8315,71.5909 -334.3374,150.6718 -334.3374,199.5359 0,15.5854 7.3804,18.4509 33.1326,12.8641 78.7444,-17.0835 291.3243,-32.678 349.4643,-25.6362 l 63.3198,7.6693 -3.1563,2110.5705 -3.1563,2110.5704 -44.3874,102.4097 c -63.8653,147.3485 -94.1516,306.1367 -102.3869,536.8059 -10.8834,304.8457 26.7671,587.202 125.2231,939.0977 62.3536,222.8602 213.9259,631.0734 228.7994,616.1999 3.0415,-3.0415 -8.1201,-61.6053 -24.8033,-130.1421 z"
     id="path2758"
     transform="translate(-5000,-5000)" />
  <path
     style="opacity:1;fill:#ffffff;fill-opacity:1;fill-rule:evenodd;stroke:none;stroke-width:0;stroke-linecap:round;stroke-miterlimit:4;stroke-dasharray:none;stroke-dashoffset:368.277"
     d="m 3493.9759,4253.012 c 0,-1501.464 2.7862,-1819.2771 15.9491,-1819.2771 26.923,0 200.7462,54.9635 321.4003,101.6279 257.7774,99.6985 469.6041,235.8016 657.5128,422.4658 307.3155,305.2802 444.4279,634.3504 459.3379,1102.4124 11.3993,357.8507 -40.684,660.7121 -152.5958,887.337 -140.0111,283.5269 -368.7975,518.4795 -765.4597,786.0897 -192.3517,129.7712 -518.3882,338.6215 -528.6225,338.6215 -4.1371,0 -7.5221,-818.6747 -7.5221,-1819.2772 z"
     id="path2888"
     transform="translate(-5000,-5000)" />
</svg>
